<svg width="163" height="38" fill="none" xmlns="http://www.w3.org/2000/svg"><path d="M12.977 38c-2.461 0-4.594-.465-6.399-1.395-1.805-.947-3.208-2.214-4.21-3.8C1.382 31.219.89 29.478.89 27.582V10.957c0-1.914.492-3.655 1.476-5.223C3.37 4.148 4.773 2.891 6.578 1.961 8.383 1.013 10.516.539 12.977.539h8.421c2.461 0 4.594.474 6.399 1.422 1.823.93 3.226 2.187 4.21 3.773.985 1.568 1.477 3.309 1.477 5.223v16.625c0 1.896-.492 3.637-1.476 5.223-.985 1.586-2.388 2.853-4.211 3.8-1.805.93-3.938 1.395-6.399 1.395h-8.421Zm-3.91-12.387h3.253l.711-8.34h10.09l.793 8.34h3.117l-2.16-20.37-1.695-1.696L19.539 3h-2.926l-3.636.547-1.668 1.695-2.243 20.371Zm4.21-10.965.82-8.34 2.653-.41h2.68l2.57.41.902 8.34h-9.625ZM45.352 38c-2.461 0-4.594-.465-6.399-1.395-1.805-.947-3.208-2.214-4.21-3.8-.985-1.586-1.477-3.327-1.477-5.223V10.957c0-1.914.492-3.655 1.476-5.223 1.003-1.586 2.406-2.843 4.211-3.773 1.805-.948 3.938-1.422 6.399-1.422h8.421c2.461 0 4.594.474 6.399 1.422 1.823.93 3.226 2.187 4.21 3.773.985 1.568 1.477 3.309 1.477 5.223v16.625c0 1.896-.492 3.637-1.476 5.223-.985 1.586-2.388 2.853-4.211 3.8-1.805.93-3.938 1.395-6.399 1.395h-8.421Zm.3-12.387h11.293v-2.898h-8.394V3h-2.899v22.613ZM77.727 38c-2.461 0-4.594-.465-6.399-1.395-1.805-.947-3.208-2.214-4.21-3.8-.985-1.586-1.477-3.327-1.477-5.223V10.957c0-1.914.492-3.655 1.476-5.223 1.003-1.586 2.406-2.843 4.211-3.773 1.805-.948 3.938-1.422 6.399-1.422h8.421c2.461 0 4.594.474 6.399 1.422 1.823.93 3.226 2.187 4.21 3.773.985 1.568 1.477 3.309 1.477 5.223v16.625c0 1.896-.492 3.637-1.476 5.223-.985 1.586-2.388 2.853-4.211 3.8-1.805.93-3.938 1.395-6.399 1.395h-8.421Zm-2.188-12.387h15.805v-2.898h-6.426V5.898h6.426V3H75.539v2.898h6.453v16.817H75.54v2.898ZM110.102 38c-2.461 0-4.594-.465-6.399-1.395-1.805-.947-3.208-2.214-4.21-3.8-.985-1.586-1.477-3.327-1.477-5.223V10.957c0-1.914.492-3.655 1.476-5.223 1.003-1.586 2.406-2.843 4.211-3.773 1.805-.948 3.938-1.422 6.399-1.422h8.421c2.461 0 4.594.474 6.399 1.422 1.823.93 3.226 2.187 4.211 3.773.984 1.568 1.476 3.309 1.476 5.223v16.625c0 1.896-.492 3.637-1.476 5.223-.985 1.586-2.388 2.853-4.211 3.8-1.805.93-3.938 1.395-6.399 1.395h-8.421Zm.957-12.387h5.988l2.133-.328 2.707.3V5.079l-1.86-1.75L117.293 3h-6.234l-3.2.383.684 2.98 2.57-.52h6.098l1.641.356.382 1.45v6.37l-1.941-.328h-6.234l-2.735.41-1.75 1.723-.383 2.242v3.2l.383 2.297 1.75 1.722 2.735.328Zm.164-2.898-1.723-.274-.383-1.64v-2.352l.219-1.558 1.887-.274h5.933l2.078.219v5.605l-2.132.274h-5.879ZM142.477 38c-2.461 0-4.594-.465-6.399-1.395-1.805-.947-3.208-2.214-4.211-3.8-.984-1.586-1.476-3.327-1.476-5.223V10.957c0-1.914.492-3.655 1.476-5.223 1.003-1.586 2.406-2.843 4.211-3.773 1.805-.948 3.938-1.422 6.399-1.422h8.421c2.461 0 4.594.474 6.399 1.422 1.823.93 3.226 2.187 4.211 3.773.984 1.568 1.476 3.309 1.476 5.223v16.625c0 1.896-.492 3.637-1.476 5.223-.985 1.586-2.388 2.853-4.211 3.8-1.805.93-3.938 1.395-6.399 1.395h-8.421Zm1.531-12.387h7.109l2.789-.328 1.75-1.723.383-2.351v-4.156l-.383-2.352-1.75-1.723-2.844-.3h-6.124l-1.668-.328-.383-1.614v-2.87l.383-1.614 1.804-.356h6.946l2.57.52.656-2.98L152.074 3h-7.191l-2.735.383-1.777 1.75-.355 2.297v3.746l.355 2.297 1.777 1.722 2.735.356h6.179l1.668.273.383 1.504v3.582l-.383 1.531-1.777.274h-6.781l-2.68-.438-.683 2.953 3.199.383Z" fill="#000"/></svg>