<svg width="163" height="38" viewBox="0 0 163 38" fill="none" xmlns="http://www.w3.org/2000/svg">
<path d="M12.9766 38C10.5156 38 8.38281 37.5352 6.57812 36.6055C4.77344 35.6576 3.36979 34.3906 2.36719 32.8047C1.38281 31.2188 0.890625 29.4779 0.890625 27.582V10.957C0.890625 9.04297 1.38281 7.30208 2.36719 5.73438C3.36979 4.14844 4.77344 2.89062 6.57812 1.96094C8.38281 1.01302 10.5156 0.539062 12.9766 0.539062H21.3984C23.8594 0.539062 25.9922 1.01302 27.7969 1.96094C29.6198 2.89062 31.0234 4.14844 32.0078 5.73438C32.9922 7.30208 33.4844 9.04297 33.4844 10.957V27.582C33.4844 29.4779 32.9922 31.2188 32.0078 32.8047C31.0234 34.3906 29.6198 35.6576 27.7969 36.6055C25.9922 37.5352 23.8594 38 21.3984 38H12.9766ZM9.06641 25.6133H12.3203L13.0312 17.2734H23.1211L23.9141 25.6133H27.0312L24.8711 5.24219L23.1758 3.54688L19.5391 3H16.6133L12.9766 3.54688L11.3086 5.24219L9.06641 25.6133ZM13.2773 14.6484L14.0977 6.30859L16.75 5.89844H19.4297L22 6.30859L22.9023 14.6484H13.2773ZM45.3516 38C42.8906 38 40.7578 37.5352 38.9531 36.6055C37.1484 35.6576 35.7448 34.3906 34.7422 32.8047C33.7578 31.2188 33.2656 29.4779 33.2656 27.582V10.957C33.2656 9.04297 33.7578 7.30208 34.7422 5.73438C35.7448 4.14844 37.1484 2.89062 38.9531 1.96094C40.7578 1.01302 42.8906 0.539062 45.3516 0.539062H53.7734C56.2344 0.539062 58.3672 1.01302 60.1719 1.96094C61.9948 2.89062 63.3984 4.14844 64.3828 5.73438C65.3672 7.30208 65.8594 9.04297 65.8594 10.957V27.582C65.8594 29.4779 65.3672 31.2188 64.3828 32.8047C63.3984 34.3906 61.9948 35.6576 60.1719 36.6055C58.3672 37.5352 56.2344 38 53.7734 38H45.3516ZM45.6523 25.6133H56.9453V22.7148H48.5508V3H45.6523V25.6133ZM77.7266 38C75.2656 38 73.1328 37.5352 71.3281 36.6055C69.5234 35.6576 68.1198 34.3906 67.1172 32.8047C66.1328 31.2188 65.6406 29.4779 65.6406 27.582V10.957C65.6406 9.04297 66.1328 7.30208 67.1172 5.73438C68.1198 4.14844 69.5234 2.89062 71.3281 1.96094C73.1328 1.01302 75.2656 0.539062 77.7266 0.539062H86.1484C88.6094 0.539062 90.7422 1.01302 92.5469 1.96094C94.3698 2.89062 95.7734 4.14844 96.7578 5.73438C97.7422 7.30208 98.2344 9.04297 98.2344 10.957V27.582C98.2344 29.4779 97.7422 31.2188 96.7578 32.8047C95.7734 34.3906 94.3698 35.6576 92.5469 36.6055C90.7422 37.5352 88.6094 38 86.1484 38H77.7266ZM75.5391 25.6133H91.3438V22.7148H84.918V5.89844H91.3438V3H75.5391V5.89844H81.9922V22.7148H75.5391V25.6133ZM110.102 38C107.641 38 105.508 37.5352 103.703 36.6055C101.898 35.6576 100.495 34.3906 99.4922 32.8047C98.5078 31.2188 98.0156 29.4779 98.0156 27.582V10.957C98.0156 9.04297 98.5078 7.30208 99.4922 5.73438C100.495 4.14844 101.898 2.89062 103.703 1.96094C105.508 1.01302 107.641 0.539062 110.102 0.539062H118.523C120.984 0.539062 123.117 1.01302 124.922 1.96094C126.745 2.89062 128.148 4.14844 129.133 5.73438C130.117 7.30208 130.609 9.04297 130.609 10.957V27.582C130.609 29.4779 130.117 31.2188 129.133 32.8047C128.148 34.3906 126.745 35.6576 124.922 36.6055C123.117 37.5352 120.984 38 118.523 38H110.102ZM111.059 25.6133H117.047L119.18 25.2852L121.887 25.5859V5.07812L120.027 3.32812L117.293 3H111.059L107.859 3.38281L108.543 6.36328L111.113 5.84375H117.211L118.852 6.19922L119.234 7.64844V14.0195L117.293 13.6914H111.059L108.324 14.1016L106.574 15.8242L106.191 18.0664V21.2656L106.574 23.5625L108.324 25.2852L111.059 25.6133ZM111.223 22.7148L109.5 22.4414L109.117 20.8008V18.4492L109.336 16.8906L111.223 16.6172H117.156L119.234 16.8359V22.4414L117.102 22.7148H111.223ZM142.477 38C140.016 38 137.883 37.5352 136.078 36.6055C134.273 35.6576 132.87 34.3906 131.867 32.8047C130.883 31.2188 130.391 29.4779 130.391 27.582V10.957C130.391 9.04297 130.883 7.30208 131.867 5.73438C132.87 4.14844 134.273 2.89062 136.078 1.96094C137.883 1.01302 140.016 0.539062 142.477 0.539062H150.898C153.359 0.539062 155.492 1.01302 157.297 1.96094C159.12 2.89062 160.523 4.14844 161.508 5.73438C162.492 7.30208 162.984 9.04297 162.984 10.957V27.582C162.984 29.4779 162.492 31.2188 161.508 32.8047C160.523 34.3906 159.12 35.6576 157.297 36.6055C155.492 37.5352 153.359 38 150.898 38H142.477ZM144.008 25.6133H151.117L153.906 25.2852L155.656 23.5625L156.039 21.2109V17.0547L155.656 14.7031L153.906 12.9805L151.062 12.6797H144.938L143.27 12.3516L142.887 10.7383V7.86719L143.27 6.25391L145.074 5.89844H152.02L154.59 6.41797L155.246 3.4375L152.074 3H144.883L142.148 3.38281L140.371 5.13281L140.016 7.42969V11.1758L140.371 13.4727L142.148 15.1953L144.883 15.5508H151.062L152.73 15.8242L153.113 17.3281V20.9102L152.73 22.4414L150.953 22.7148H144.172L141.492 22.2773L140.809 25.2305L144.008 25.6133Z" fill="black"/>
</svg>
