<svg width="44" height="44" viewBox="0 0 44 44" fill="none" xmlns="http://www.w3.org/2000/svg">
<path d="M22 0C9.84964 0 0 9.84964 0 22C0 34.1504 9.84964 44 22 44C34.1504 44 44 34.1504 44 22C44 9.84964 34.1504 0 22 0ZM22 10.759C26.3506 10.759 29.8907 14.299 29.8907 18.6496C29.8907 23.0008 26.3506 26.5403 22 26.5403C17.6489 26.5403 14.1093 23.0008 14.1093 18.6496C14.1093 14.299 17.6489 10.759 22 10.759ZM22 40.9899C16.5562 40.9899 11.6732 38.6017 8.33213 34.8187C9.88533 32.0076 12.3136 29.6971 15.201 28.2964C16.1832 27.8202 17.3296 27.828 18.347 28.3164C19.4925 28.8669 20.7216 29.1456 22.0005 29.1456C23.2789 29.1456 24.5085 28.8664 25.654 28.3164C26.6723 27.8276 27.8188 27.8202 28.8 28.2964C31.6873 29.6966 34.1152 32.0076 35.6684 34.8187C32.3268 38.6012 27.4438 40.9899 22 40.9899Z" fill="black"/>
</svg>
